<svg width="155" height="60" viewBox="0 0 155 60" fill="none" xmlns="http://www.w3.org/2000/svg">
<path d="M7.47384 54.757H10.3152C10.8532 54.7639 11.2807 54.3846 11.2807 53.9156C11.2807 53.4466 10.8669 53.0742 10.3152 53.0742H5.89453V56.4259L6.63246 55.2053C6.82557 54.9294 7.13591 54.7639 7.47384 54.7639V54.757Z" fill="white"/>
<path d="M7.47384 51.4087H10.3566C10.8738 51.4087 11.2876 51.1742 11.2876 50.7742C11.2876 50.3742 10.8738 50.1328 10.3566 50.1328H5.89453V53.0707L6.63246 51.8501C6.82557 51.5742 7.13591 51.4087 7.47384 51.4087Z" fill="white"/>
<path d="M0 0V59.7379H59.7379V0H0ZM19.4966 16.4828C20.5517 16.4 23.4965 17.7103 24.5931 18.1724C25.7517 18.6621 26.9172 19.1862 28.0483 19.7517C28.0483 19.7517 30.1724 20.8069 31.3241 21.5034C32.3724 20.4483 33.8069 18.869 34.2828 17.4345C35.9241 12.4966 27.9793 13.6138 25.4276 13.9793C24.5379 14.1034 22.2759 14.8207 21.6345 14.0345C21.0759 13.3448 22.6276 12.8828 23.0621 12.7517C25.4276 12.0276 28.4552 11.5241 30.931 11.4C35.469 11.1724 44.4965 11.9655 40.3517 18.8759C37.0069 24.4414 28.0552 29.1034 22.1103 31.2621C21.2 31.5931 19.2621 32.4759 18.5655 31.4207C17.8483 30.3379 19.6 29.3931 20.331 28.9724C22.7793 27.5655 25.3379 26.3724 27.6069 24.6621C27.7172 24.5793 28.1034 24.3379 28.0828 24.2138C28.0069 23.8621 23.1655 21.0207 22.4965 20.6414C21.5103 20.0759 19.1931 19.0897 18.5931 18.2483C17.9448 17.3379 18.4483 16.5724 19.4828 16.4897L19.4966 16.4828ZM32.7448 28.4483L36.8414 25.7724L36.931 25.7103C37.0759 25.7931 37.1724 25.8828 37.1724 25.8828C37.1724 25.8828 37.2138 25.9172 37.2276 25.931C38.5586 26.9517 40.7517 29.8 41.1862 31.4276C42.8897 37.7655 32.3034 37.3103 28.7034 36.8828C27.3862 36.7241 22.6828 35.9517 21.8138 35.2C20.7517 34.2759 22.6828 34.0414 23.331 34.1034C25.0414 34.269 26.8138 34.7931 28.6207 34.8897C30.2897 34.9793 34.1586 34.9724 34.4345 32.6897C34.6414 30.9655 33.6 29.8 32.7379 28.469L32.7448 28.4483ZM10.3448 56.4276H3.29655V48.4621H10.3448C11.8 48.4621 14.1379 48.6621 14.1379 50.5517C14.1379 51.4828 13.3241 52.1379 12.3724 52.3793C13.5586 52.7379 14.1379 53.3862 14.1379 54.2828C14.1379 56.2345 11.9172 56.4207 10.3448 56.4276ZM23.8828 56.4345L23.069 55.0138H18.5586L19.3103 53.7931C19.5034 53.5172 19.8138 53.3517 20.1517 53.3517H22.1034L20.4 50.3931L16.9034 56.4483H13.8621L18.731 48.469H22.0621L26.931 56.4414H23.8897L23.8828 56.4345ZM32.6483 56.4345H28.3448C28.0138 56.4345 27.6965 56.2621 27.5103 55.9931L26.7586 54.7655H31.6414C32.2345 54.7655 32.7034 54.4828 32.7034 53.9034V48.469H35.2828V54.1448C35.2828 55.8621 34.1448 56.4414 32.6552 56.4414L32.6483 56.4345ZM45.0483 56.4345L44.2276 55.0138H39.7172L40.4552 53.7931C40.6483 53.5172 40.9586 53.3517 41.2896 53.3517H43.2483L41.5448 50.4L38.0552 56.4483H35.0069L39.8759 48.469H43.2069L48.069 56.4414H45.0345L45.0483 56.4345ZM56.4414 54.1379C56.4414 55.8552 55.3034 56.4345 53.8138 56.4345H49.5103C49.1724 56.4345 48.8621 56.269 48.6759 55.9931L47.9241 54.7655H52.7931C53.3862 54.7655 53.8621 54.4828 53.8621 53.9034V48.469H56.4483V54.1448L56.4414 54.1379Z" fill="white"/>
<path d="M71.7153 32.3438L75.7704 23.4477H79.3125L73.6573 35.1719H69.7897L64.1401 23.4547H67.6601L68.6091 25.5426L69.3815 27.2889L69.7401 27.9866C69.9332 28.3364 69.9332 28.3364 69.7401 27.9866L71.7208 32.3369H71.7097L71.7153 32.3438Z" fill="white"/>
<path d="M83.8095 23.4492H80.0039V35.1734H83.8095V23.4492Z" fill="white"/>
<path d="M92.247 35.1734H88.4554V25.9072H84.4961L85.5994 24.0917C85.5994 24.0917 86.0323 23.4423 86.8353 23.4493C87.6384 23.4493 96.2202 23.4493 96.2202 23.4493V25.9072H92.247V35.1734Z" fill="white"/>
<path d="M106.234 26.2773L101.257 35.1734H96.9102L103.851 23.4492H108.597L115.531 35.1664H111.211L110.046 33.0785H103.62L104.677 31.2839C104.948 30.8789 105.394 30.6345 105.868 30.6345H108.658L106.227 26.2842H106.241L106.234 26.2773Z" fill="white"/>
<path d="M116.223 23.5222H119.968V32.6739H126.41L125.32 34.467C125.32 34.467 124.893 35.1084 124.1 35.1015C123.307 35.1015 116.223 35.1015 116.223 35.1015V32.6739V23.5222Z" fill="white"/>
<path d="M130.546 23.4492H127.098V35.1734H130.546V23.4492Z" fill="white"/>
<path d="M138.989 35.1734H135.198V25.9072H131.238L132.342 24.0917C132.342 24.0917 132.774 23.4423 133.578 23.4493C134.381 23.4493 142.962 23.4493 142.962 23.4493V25.9072H138.989V35.1734Z" fill="white"/>
<path d="M148.831 26.9013L150.552 23.4494H154L150.144 29.6562H147.507L143.655 23.4531H147.103L147.793 24.8287L148.138 25.5183L148.483 26.208L148.835 26.8976H148.828L148.831 26.9013Z" fill="white"/>
<path d="M150.55 28.2734H147.102V35.17H150.55V28.2734Z" fill="white"/>
</svg>
