<svg width="77" height="68" viewBox="0 0 77 68" fill="none" xmlns="http://www.w3.org/2000/svg">
<path d="M13.005 33.8017H11.5391L38.4513 60.8129L60.5523 38.6305H67.3555L38.4513 67.6411L5.93871 35.0466C5.06168 34.1664 4.28489 33.217 3.60833 32.1984C2.93177 31.1798 2.34291 30.1046 1.84175 28.9729H10.9753L21.6124 18.3344L38.4513 35.1975L50.479 23.1632L56.305 28.9729H69.6483C70.4501 27.6902 71.064 26.3321 71.49 24.8986C71.916 23.465 72.129 21.9937 72.129 20.4847C72.129 18.2967 71.7218 16.2595 70.9074 14.3733C70.093 12.487 68.978 10.846 67.5622 9.45014C66.1464 8.05431 64.4926 6.96028 62.6007 6.16806C60.7089 5.37583 58.6729 4.97971 56.4929 4.97971C54.388 4.97971 52.5212 5.31295 50.8925 5.97943C49.2637 6.64591 47.7602 7.51987 46.3821 8.60133C45.0039 9.68278 43.6821 10.9088 42.4167 12.2795C41.1512 13.6502 39.8294 15.0397 38.4513 16.4481C37.0981 15.09 35.7826 13.7194 34.5046 12.3361C33.2267 10.9529 31.8924 9.70793 30.5017 8.60133C29.1109 7.49472 27.5949 6.58932 25.9537 5.88512C24.3124 5.18092 22.4644 4.82881 20.4096 4.82881C18.2546 4.82881 16.2312 5.2375 14.3393 6.05488C12.4475 6.87226 10.7937 7.99144 9.3779 9.41242C7.96213 10.8334 6.84705 12.4933 6.03267 14.3921C5.2183 16.291 4.81111 18.3218 4.81111 20.4847C4.81111 21.6668 4.94892 22.8866 5.22456 24.1441H0.300694C0.175405 23.5405 0.0939669 22.9369 0.0563801 22.3333C0.0187934 21.7297 0 21.1261 0 20.5225C0 17.6805 0.532479 15.0146 1.59744 12.5247C2.6624 10.0349 4.11575 7.8594 5.9575 5.99829C7.79925 4.13719 9.96049 2.6722 12.4412 1.60332C14.9219 0.534439 17.5781 0 20.4096 0C22.4894 0 24.3437 0.238926 25.9725 0.716777C27.6012 1.19463 29.1109 1.85482 30.5017 2.69735C31.8924 3.53987 33.2204 4.55216 34.4859 5.73422C35.7513 6.91627 37.0731 8.2115 38.4513 9.6199C39.8294 8.2115 41.1512 6.91627 42.4167 5.73422C43.6821 4.55216 45.0101 3.53987 46.4009 2.69735C47.7916 1.85482 49.3013 1.19463 50.9301 0.716777C52.5588 0.238926 54.4131 0 56.4929 0C59.2994 0 61.943 0.534439 64.4237 1.60332C66.9044 2.6722 69.0657 4.12461 70.9074 5.96057C72.7492 7.79652 74.2025 9.95943 75.2675 12.4493C76.3324 14.9391 76.8649 17.5925 76.8649 20.4093C76.8649 22.8488 76.4389 25.2192 75.587 27.5205C74.735 29.8217 73.5197 31.9154 71.9411 33.8017H54.2753L50.479 29.9537L38.4513 42.0635L21.6124 25.1249L13.005 33.8017Z" fill="#195AFF"/>
</svg>
