<svg width="15" height="15" viewBox="0 0 15 15" fill="none" xmlns="http://www.w3.org/2000/svg">
<path d="M13.9727 10.6367L13.3164 13.3984C13.2344 13.8086 12.9062 14.082 12.4961 14.082C5.60547 14.0547 0 8.44922 0 1.55859C0 1.14844 0.246094 0.820312 0.65625 0.738281L3.41797 0.0820312C3.80078 0 4.21094 0.21875 4.375 0.574219L5.66016 3.55469C5.79688 3.91016 5.71484 4.32031 5.41406 4.53906L3.9375 5.74219C4.86719 7.62891 6.39844 9.16016 8.3125 10.0898L9.51562 8.61328C9.73438 8.33984 10.1445 8.23047 10.5 8.36719L13.4805 9.65234C13.8359 9.84375 14.0547 10.2539 13.9727 10.6367Z" fill="#FAFAFA"/>
</svg>
