<svg width="24" height="24" viewBox="0 0 24 24" fill="none" xmlns="http://www.w3.org/2000/svg">
<path d="M10.875 5.625C10.875 5.01562 11.3438 4.5 12 4.5C12.6094 4.5 13.125 5.01562 13.125 5.625V11.4375L17.1094 14.0625C17.625 14.4375 17.7656 15.1406 17.3906 15.6562C17.0625 16.1719 16.3594 16.3125 15.8438 15.9375L11.3438 12.9375C11.0625 12.75 10.875 12.375 10.875 12V5.625ZM12 0C18.6094 0 24 5.39062 24 12C24 18.6562 18.6094 24 12 24C5.34375 24 0 18.6562 0 12C0 5.39062 5.34375 0 12 0ZM2.25 12C2.25 17.3906 6.60938 21.75 12 21.75C17.3438 21.75 21.75 17.3906 21.75 12C21.75 6.65625 17.3438 2.25 12 2.25C6.60938 2.25 2.25 6.65625 2.25 12Z" fill="white"/>
</svg>
