<svg width="64" height="64" viewBox="0 0 64 64" fill="none" xmlns="http://www.w3.org/2000/svg">
<rect width="64" height="64" rx="32" fill="#FAFAFA"/>
<path d="M46 25V40L40 46H25C23.3125 46 22 44.6875 22 43V25C22 23.375 23.3125 22 25 22H43C44.625 22 46 23.375 46 25ZM40 32.5C40 32.25 39.75 32 39.5 32H36V28.5C36 28.25 35.75 28 35.5 28H32.5C32.1875 28 32 28.25 32 28.5V32H28.5C28.1875 32 28 32.25 28 32.5V35.5C28 35.8125 28.1875 36 28.5 36H32V39.5C32 39.8125 32.1875 40 32.5 40H35.5C35.75 40 36 39.8125 36 39.5V36H39.5C39.75 36 40 35.8125 40 35.5V32.5ZM16 38.5V23.5C16 19.375 19.3125 16 23.5 16H38.5C39.3125 16 40 16.6875 40 17.5C40 18.375 39.3125 19 38.5 19H23.5C21 19 19 21.0625 19 23.5V38.5C19 39.375 18.3125 40 17.5 40C16.625 40 16 39.375 16 38.5Z" fill="#195AFF"/>
</svg>
