<svg width="120" height="48" viewBox="0 0 120 48" fill="none" xmlns="http://www.w3.org/2000/svg">
<path d="M114.704 28.2529L119.841 19.0723H116.343L112.791 26.0671L109.294 19.0723H105.796L110.879 28.2529" fill="white"/>
<path d="M64.8659 19.0723H61.8603V28.2529H64.8659V19.0723Z" fill="white"/>
<path d="M72.899 19.0723V24.2091L69.3469 19.0723H65.7949V28.2529H68.8005V23.1708L68.8551 23.2254L72.2979 28.2529H75.9046V19.0723H72.899Z" fill="white"/>
<path d="M106.671 28.253L104.54 24.7009L104.376 24.4277C104.813 24.2091 105.195 23.8812 105.469 23.4987C105.796 23.0615 105.906 22.5697 105.906 22.0232C105.906 21.6407 105.851 21.2582 105.687 20.9303C105.523 20.6024 105.359 20.2745 105.086 20.0013C104.813 19.7281 104.43 19.5095 104.048 19.3455C103.611 19.1816 103.173 19.127 102.682 19.127H97.0529L97.818 21.0396H101.589C101.862 21.0396 102.135 21.1489 102.299 21.3128C102.463 21.4768 102.572 21.6954 102.572 21.9686C102.572 22.2418 102.463 22.4604 102.299 22.679C102.08 22.8429 101.862 23.0615 101.589 23.0615H98.5284L99.1841 24.9742H101.206L103.173 28.3623H106.671V28.253Z" fill="white"/>
<path d="M86.5607 25.3567C86.5607 24.7556 86.3421 23.0615 83.6644 22.5697C83.3912 22.5151 83.0633 22.5151 82.954 22.5151C82.6261 22.5151 82.0796 22.4604 81.4785 22.5151H81.3146C80.9867 22.5151 80.2216 22.4604 80.167 21.8047C80.167 21.8047 80.1124 21.1489 81.096 21.0396H86.1782V19.127H80.3309C80.3309 19.127 77.1614 19.127 76.8882 21.2582C76.8882 21.2582 76.8882 21.2582 76.8882 21.3128V21.3675C76.8882 21.4768 76.8882 21.5861 76.8882 21.75C76.8882 22.1872 77.1068 23.4987 79.0194 24.0998C79.0194 24.0998 79.7298 24.3731 81.096 24.4823C81.096 24.4823 82.0796 24.4823 82.2436 24.4823C82.2436 24.4823 82.954 24.4823 83.1726 24.9742C83.1726 24.9742 83.7737 26.0671 82.3529 26.395C82.2436 26.395 82.025 26.4496 81.8064 26.4496H77.4893V28.3623H82.2982C82.2982 28.3623 86.0689 28.4169 86.5061 26.0125C86.5607 25.6846 86.5607 25.4113 86.5607 25.3567Z" fill="white"/>
<path d="M51.9145 19.0723V28.2529H52.3517H54.9201V24.537H57.4885C58.0896 24.537 58.2536 24.1544 58.2536 24.1544L59.1279 22.679H54.8655V22.1325C54.9201 21.0396 55.9584 20.9849 55.9584 20.9849H59.0733C59.729 20.9849 59.893 20.657 59.893 20.657L60.822 19.1269H51.9145V19.0723Z" fill="white"/>
<path d="M90.4953 22.1325V22.679H94.7578L93.8834 24.1544C93.8834 24.1544 93.6648 24.537 93.1184 24.537H90.55V25.4113C90.55 25.4113 90.55 25.5206 90.6046 25.5752C90.7685 26.0124 91.1511 26.3403 91.6429 26.3403H95.3589H96.1239V28.2529H87.5444V19.0723H96.1239V20.9849H91.6429C90.9871 20.9849 90.4953 21.5314 90.4953 22.1325Z" fill="white"/>
<path d="M5.90187 43.3897H8.14239C8.57957 43.3897 8.90745 43.1164 8.90745 42.7339C8.90745 42.3514 8.57957 42.0781 8.14239 42.0781H4.64499V44.7558L5.24611 43.7175C5.41005 43.4989 5.62863 43.3897 5.90187 43.3897Z" fill="white"/>
<path d="M5.90187 40.7122H8.19704C8.57957 40.7122 8.96209 40.5482 8.96209 40.2203C8.96209 39.8925 8.63421 39.7285 8.19704 39.7285H4.64499V42.0783L5.24611 41.0947C5.41005 40.8761 5.62863 40.7122 5.90187 40.7122Z" fill="white"/>
<path d="M0 0V47.3242H47.3243V0H0ZM15.4651 13.0606C16.2848 13.006 18.6346 14.0443 19.509 14.4268C20.438 14.8093 21.367 15.2465 22.2413 15.6837C22.2413 15.6837 23.9354 16.5034 24.8644 17.0498C25.6841 16.2301 26.8316 14.9733 27.2142 13.8257C28.5257 9.89109 22.2413 10.8201 20.2194 11.0933C19.509 11.2026 17.7056 11.7491 17.2138 11.148C16.7766 10.6015 17.9788 10.219 18.3614 10.1097C20.2194 9.56321 22.6238 9.12603 24.5911 9.01674C28.1978 8.8528 35.3566 9.45391 32.0778 14.9186C29.4547 19.345 22.3506 23.0063 17.651 24.755C16.9406 25.0283 15.4104 25.7387 14.864 24.8643C14.3175 23.99 15.6837 23.2796 16.2848 22.8971C18.1974 21.8041 20.274 20.8205 22.0774 19.4543C22.1867 19.3997 22.4599 19.1811 22.4599 19.1264C22.4052 18.8532 18.58 16.6127 18.0335 16.2848C17.2684 15.8476 15.4104 15.0279 14.9186 14.3721C14.2082 13.7164 14.6454 13.1153 15.4651 13.0606ZM25.9573 22.5145L29.1815 20.3833L29.2361 20.3287C29.3454 20.3833 29.4547 20.4379 29.4547 20.4379C29.4547 20.4379 29.5093 20.4379 29.5093 20.4926C30.5476 21.3123 32.2963 23.5528 32.6242 24.8643C33.9904 29.8919 25.5748 29.5093 22.7331 29.1814C21.6948 29.0722 17.9788 28.471 17.2684 27.8699C16.4487 27.1595 17.9788 26.9409 18.4707 26.9956C19.8368 27.1049 21.203 27.542 22.6785 27.5967C23.99 27.6513 27.0502 27.6513 27.2688 25.848C27.4328 24.5365 26.6131 23.6075 25.9573 22.5145ZM8.19704 44.7012H4.64499H2.62305V38.4168H8.19704C9.34463 38.4168 11.2026 38.5807 11.2026 40.0562C11.2026 40.7666 10.5469 41.3131 9.7818 41.477C10.7108 41.7502 11.2026 42.2967 11.2026 43.0071C11.2026 44.5372 9.45392 44.7012 8.19704 44.7012ZM18.9078 44.7012L18.2521 43.5536H14.7L15.3011 42.6246C15.4651 42.406 15.6837 42.2967 15.9569 42.2967H17.487L16.1208 39.9469L13.3339 44.7558H10.9294L14.8093 38.4168H17.487L21.3123 44.7012H18.9078ZM25.848 44.7012H22.4599C22.1867 44.7012 21.9681 44.5919 21.8041 44.3733L21.203 43.3896H25.0829C25.5748 43.3896 25.9027 43.1711 25.9027 42.6792V38.3621H27.9246V42.8432C27.9792 44.264 27.0502 44.7012 25.848 44.7012ZM35.6845 44.7012L35.0287 43.5536H31.4766L32.0778 42.5699C32.2417 42.3514 32.4603 42.2421 32.7335 42.2421H34.2636L32.8975 39.8922L30.1105 44.7012H27.706L31.5859 38.3621H34.209L38.0889 44.7012H35.6845ZM44.7012 42.8978C44.7012 44.264 43.8269 44.7012 42.6246 44.7012H39.2365C38.9633 44.7012 38.7447 44.5919 38.5807 44.3733L37.9796 43.3896H41.8596C42.3514 43.3896 42.6793 43.1711 42.6793 42.6792V38.3621H44.7012V42.8978Z" fill="white"/>
</svg>
