<svg width="64" height="64" viewBox="0 0 64 64" fill="none" xmlns="http://www.w3.org/2000/svg">
<rect width="64" height="64" rx="32" fill="#FAFAFA"/>
<path d="M40 24C40 28.4375 36.375 32 31.9375 32C27.5625 32 23.9375 28.4375 23.9375 24C23.9375 19.625 27.5625 16 31.9375 16C36.375 16 40 19.625 40 24ZM35.9375 38.625C34.25 39.125 32.9375 40.6875 32.9375 42.5V44C32.9375 44.3125 33.0625 44.5625 33.25 44.75L34.25 45.75C34.625 46.125 35.3125 46.125 35.6875 45.75C36.0625 45.375 36.0625 44.6875 35.6875 44.3125L34.9375 43.625V42.5C34.9375 41.4375 35.875 40.5 36.9375 40.5C38.0625 40.5 39 41.4375 39 42.5V43.625L38.25 44.3125C37.875 44.6875 37.875 45.375 38.25 45.75C38.625 46.125 39.3125 46.125 39.6875 45.75L40.6875 44.75C40.875 44.5625 41 44.3125 41 44V42.5C41 40.6875 39.6875 39.125 38 38.625V35.3125C42.5625 36.4375 46 40.5625 46 45.5V46C46 47.125 45.0625 48 44 48H20C18.875 48 18 47.125 18 46V45.5C18 40.5625 21.375 36.4375 26 35.3125V39.1875C24.5 39.625 23.5 40.9375 23.5 42.5C23.5 44.4375 25.0625 46 27 46C28.875 46 30.5 44.4375 30.5 42.5C30.5 40.9375 29.4375 39.625 28 39.1875V35.0625C28.125 35.0625 28.3125 35 28.5 35H35.5C35.625 35 35.8125 35.0625 36 35.0625L35.9375 38.625ZM28.4375 42.5C28.4375 43.375 27.8125 44 26.9375 44C26.125 44 25.4375 43.375 25.4375 42.5C25.4375 41.6875 26.125 41 26.9375 41C27.8125 41 28.4375 41.6875 28.4375 42.5Z" fill="#195AFF"/>
</svg>
