<svg width="14" height="14" viewBox="0 0 14 14" fill="none" xmlns="http://www.w3.org/2000/svg">
<path d="M5.22266 6.125L5.25 9.1875C5.25 9.67969 4.83984 10.0625 4.375 10.0625H3.9375C2.95312 10.0625 2.1875 9.29688 2.1875 8.3125V7.02734C2.1875 6.04297 2.95312 5.25 3.9375 5.25H4.34766C4.8125 5.25 5.22266 5.66016 5.22266 6.125ZM7 0C10.9102 0 13.8633 3.28125 14 7V10.9375C14 12.2773 12.9062 13.3438 11.5938 13.3438H8.55859C8.33984 13.7539 7.90234 14 7.4375 14H6.53516C5.74219 14 5.11328 13.2891 5.25 12.4414C5.38672 11.8125 5.96094 11.375 6.58984 11.375H7.4375C7.90234 11.375 8.33984 11.6484 8.55859 12.0312H11.5938C12.1953 12.0312 12.6875 11.5664 12.6875 10.9375V7C12.6875 3.88281 10.1172 1.33984 7 1.33984C3.85547 1.33984 1.3125 3.88281 1.3125 7V8.09375C1.3125 8.47656 0.957031 8.75 0.628906 8.75C0.273438 8.75 0 8.47656 0 8.09375V7C0.109375 3.28125 3.0625 0 7 0ZM10.0625 10.0625H9.625C9.13281 10.0625 8.75 9.67969 8.75 9.1875V6.15234C8.75 5.66016 9.13281 5.25 9.625 5.25H10.0625C11.0195 5.25 11.8125 6.04297 11.8125 7.02734V8.3125C11.8125 9.29688 11.0195 10.0625 10.0625 10.0625Z" fill="#FAFAFA"/>
</svg>
