<svg width="19" height="16" viewBox="0 0 19 16" fill="none" xmlns="http://www.w3.org/2000/svg">
<path d="M16.5938 4.88672C18.457 6.75 18.457 9.73828 16.5938 11.6016L12.6562 15.5742C12.3398 15.9258 11.8125 15.9258 11.4609 15.6094C11.1445 15.2578 11.1445 14.7305 11.4609 14.4141L15.3984 10.4062C16.5938 9.21094 16.5938 7.27734 15.3984 6.08203L10.8984 1.51172C10.582 1.19531 10.582 0.667969 10.9336 0.316406C11.25 0 11.7773 0 12.0938 0.351562L16.5938 4.88672ZM0 7.03125V1.75781C0 0.84375 0.738281 0.0703125 1.6875 0.0703125H6.92578C7.52344 0.0703125 8.08594 0.316406 8.50781 0.738281L14.4141 6.64453C15.293 7.52344 15.293 8.96484 14.4141 9.84375L9.73828 14.5195C8.85938 15.3984 7.41797 15.3984 6.53906 14.5195L0.632812 8.61328C0.210938 8.19141 0 7.62891 0 7.03125ZM3.9375 2.88281C3.30469 2.88281 2.8125 3.41016 2.8125 4.00781C2.8125 4.64062 3.30469 5.13281 3.9375 5.13281C4.53516 5.13281 5.0625 4.64062 5.0625 4.00781C5.0625 3.41016 4.53516 2.88281 3.9375 2.88281Z" fill="#FAFAFA"/>
</svg>
