<svg width="19" height="19" viewBox="0 0 19 19" fill="none" xmlns="http://www.w3.org/2000/svg">
<path d="M17.9648 13.6758L17.1211 17.2266C17.0156 17.7539 16.5938 18.1055 16.0664 18.1055C7.20703 18.0703 0 10.8633 0 2.00391C0 1.47656 0.316406 1.05469 0.84375 0.949219L4.39453 0.105469C4.88672 0 5.41406 0.28125 5.625 0.738281L7.27734 4.57031C7.45312 5.02734 7.34766 5.55469 6.96094 5.83594L5.0625 7.38281C6.25781 9.80859 8.22656 11.7773 10.6875 12.9727L12.2344 11.0742C12.5156 10.7227 13.043 10.582 13.5 10.7578L17.332 12.4102C17.7891 12.6562 18.0703 13.1836 17.9648 13.6758Z" fill="#FAFAFA"/>
</svg>
