<svg width="48" height="48" viewBox="0 0 48 48" fill="none" xmlns="http://www.w3.org/2000/svg">
<rect width="48" height="48" rx="24" fill="#FFA250"/>
<path d="M19.0549 15L21.1978 16.5554C20.8315 17.0368 20.3919 17.7775 19.8791 18.7774C19.3663 19.7403 18.9267 20.8142 18.5604 21.9993C18.1941 23.1473 18.0293 24.2583 18.0659 25.3323C18.3223 25.2582 18.5238 25.2212 18.6703 25.2212C18.8535 25.1842 19.0366 25.1657 19.2198 25.1657C20.2088 25.1657 21.0879 25.4619 21.8571 26.0545C22.6264 26.61 23.011 27.5358 23.011 28.832C23.011 29.943 22.6447 30.9243 21.9121 31.7761C21.2161 32.5908 20.2637 32.9982 19.0549 32.9982C17.37 33.0352 16.1062 32.4983 15.2637 31.3873C14.4212 30.2392 14 28.832 14 27.1655C14 25.9804 14.1832 24.7213 14.5495 23.3881C14.9158 22.0549 15.4652 20.6846 16.1978 19.2774C16.967 17.8331 17.9194 16.4073 19.0549 15ZM30.044 15L32.1868 16.5554C31.8205 17.0368 31.381 17.7775 30.8681 18.7774C30.3553 19.7403 29.9158 20.8142 29.5495 21.9993C29.1832 23.1473 29.0183 24.2583 29.0549 25.3323C29.3114 25.2582 29.5128 25.2212 29.6593 25.2212C29.8425 25.1842 30.0256 25.1657 30.2088 25.1657C31.1978 25.1657 32.0769 25.4619 32.8462 26.0545C33.6154 26.61 34 27.5358 34 28.832C34 29.943 33.6337 30.9243 32.9011 31.7761C32.2051 32.5908 31.2527 32.9982 30.044 32.9982C28.359 33.0352 27.0952 32.4983 26.2527 31.3873C25.4103 30.2392 24.989 28.832 24.989 27.1655C24.989 25.9804 25.1722 24.7213 25.5385 23.3881C25.9048 22.0549 26.4542 20.6846 27.1868 19.2774C27.956 17.8331 28.9084 16.4073 30.044 15Z" fill="#FAFAFA"/>
</svg>
