<svg width="16" height="17" viewBox="0 0 16 17" fill="none" xmlns="http://www.w3.org/2000/svg">
<path d="M3.51562 16.207H0.246094V5.69531H3.51562V16.207ZM1.86328 4.28906C0.84375 4.28906 0 3.41016 0 2.35547C0 0.914062 1.54688 0 2.8125 0.738281C3.41016 1.05469 3.76172 1.6875 3.76172 2.35547C3.76172 3.41016 2.91797 4.28906 1.86328 4.28906ZM15.7148 16.207H12.4805V11.1094C12.4805 9.87891 12.4453 8.33203 10.7578 8.33203C9.07031 8.33203 8.82422 9.63281 8.82422 11.0039V16.207H5.55469V5.69531H8.68359V7.13672H8.71875C9.17578 6.32812 10.2305 5.44922 11.8125 5.44922C15.1172 5.44922 15.75 7.62891 15.75 10.4414V16.207H15.7148Z" fill="#FAFAFA"/>
</svg>
