<svg width="18" height="18" viewBox="0 0 18 18" fill="none" xmlns="http://www.w3.org/2000/svg">
<path d="M6.75 0C6.28587 0 5.84075 0.184375 5.51256 0.512563C5.18437 0.840752 5 1.28587 5 1.75V5H1.75C1.28587 5 0.840752 5.18437 0.512563 5.51256C0.184375 5.84075 0 6.28587 0 6.75V10.75C0 11.716 0.784 12.5 1.75 12.5H5V15.75C5 16.716 5.784 17.5 6.75 17.5H10.75C11.2141 17.5 11.6592 17.3156 11.9874 16.9874C12.3156 16.6592 12.5 16.2141 12.5 15.75V12.5H15.75C16.2141 12.5 16.6592 12.3156 16.9874 11.9874C17.3156 11.6592 17.5 11.2141 17.5 10.75V6.75C17.5 6.28587 17.3156 5.84075 16.9874 5.51256C16.6592 5.18437 16.2141 5 15.75 5H12.5V1.75C12.5 1.28587 12.3156 0.840752 11.9874 0.512563C11.6592 0.184375 11.2141 0 10.75 0H6.75Z" fill="#FFA250"/>
</svg>
